<?xml version="1.0" standalone="no"?>
<!DOCTYPE svg PUBLIC "-//W3C//DTD SVG 20010904//EN"
 "http://www.w3.org/TR/2001/REC-SVG-20010904/DTD/svg10.dtd">
<svg version="1.0" xmlns="http://www.w3.org/2000/svg"
 width="1102.000000pt" height="1102.000000pt" viewBox="0 0 1102.000000 1102.000000"
 preserveAspectRatio="xMidYMid meet">
<metadata>
Created by potrace 1.11, written by Peter Selinger 2001-2013
</metadata>
<g transform="translate(0.000000,1102.000000) scale(0.100000,-0.100000)"
fill="#000000" stroke="none">
<path d="M820 5650 l0 -3700 95 0 95 0 0 95 0 95 105 0 105 0 0 3405 0 3405
4255 0 4255 0 0 -3505 0 -3505 -4160 0 -4160 0 0 -105 0 -105 -100 0 -101 0 3
-92 3 -93 4458 -3 4457 -2 0 3597 c0 1979 3 3736 7 3906 l6 307 -4661 0 -4662
0 0 -3700z m9300 3500 l0 -190 -190 0 -190 0 0 183 c0 101 3 187 7 190 3 4 89
7 190 7 l183 0 0 -190z"/>
<path d="M3189 6990 l-14 -200 30 -5 c17 -2 702 -55 1523 -117 820 -62 1492
-115 1492 -119 0 -4 -2773 -2391 -2817 -2424 -11 -8 15 -43 118 -163 72 -83
134 -152 138 -152 5 0 797 678 1762 1506 2019 1734 1822 1564 1818 1568 -4 4
-3980 307 -4015 306 -19 0 -21 -9 -35 -200z"/>
<path d="M6380 6127 c-476 -408 -1279 -1097 -1784 -1531 -506 -435 -916 -791
-910 -793 13 -4 3941 -303 3985 -303 l35 0 15 200 14 199 -50 6 c-27 3 -228
19 -445 35 -217 16 -868 66 -1445 110 -578 44 -1061 80 -1074 80 -12 0 -21 4
-19 9 2 5 631 548 1398 1206 767 659 1401 1202 1407 1209 10 9 -16 45 -118
164 -72 83 -134 152 -137 152 -4 0 -396 -334 -872 -743z"/>
</g>
</svg>
